HIERARCHY
ROOT Hips
{
  OFFSET 5.84602e-005 68.8428 3.50346
  CHANNELS 6 Xposition Yposition Zposition Zrotation Xrotation Yrotation
  JOINT Spine
  {
    OFFSET 0 8.597 -4.6522
    CHANNELS 3 Zrotation Xrotation Yrotation
    JOINT Spine1
    {
      OFFSET 0 7.8454 0.4098
      CHANNELS 3 Zrotation Xrotation Yrotation
      JOINT Spine2
      {
        OFFSET 0 9.7078 -2.1609
        CHANNELS 3 Zrotation Xrotation Yrotation
        JOINT Neck
        {
          OFFSET 0 21.8761 -0.4549
          CHANNELS 3 Zrotation Xrotation Yrotation
          JOINT Head
          {
            OFFSET 0 12.3537 3.3602
            CHANNELS 3 Zrotation Xrotation Yrotation
            End Site
            {
              OFFSET 0.0001 18.9506 0.5657
            }
          }
        }
        JOINT LeftShoulder
        {
          OFFSET 2.2086 21.1115 7.2329
          CHANNELS 3 Zrotation Xrotation Yrotation
          JOINT LeftArm
          {
            OFFSET 13.1193 3.0282 -4.8998
            CHANNELS 3 Zrotation Xrotation Yrotation
            JOINT LeftForeArm
            {
              OFFSET 27.4081 -0.0973053 -0.2375
              CHANNELS 3 Zrotation Xrotation Yrotation
              JOINT LeftHand
              {
                OFFSET 22.8641 0.0662994 -0.1369
                CHANNELS 3 Zrotation Xrotation Yrotation
                JOINT LeftHandIndex1
                {
                  OFFSET 8.8614 0.775009 2.4612
                  CHANNELS 3 Zrotation Xrotation Yrotation
                  JOINT LeftHandIndex2
                  {
                    OFFSET 3.3146 -0.808304 0.5841
                    CHANNELS 3 Zrotation Xrotation Yrotation
                    JOINT LeftHandIndex3
                    {
                      OFFSET 2.2628 -0.552002 0.3989
                      CHANNELS 3 Zrotation Xrotation Yrotation
                      End Site
                      {
                        OFFSET 1.6102 -0.4807 0.2612
                      }
                    }
                  }
                }
                JOINT LeftHandMiddle1
                {
                  OFFSET 8.9937 0.895004 0.2143
                  CHANNELS 3 Zrotation Xrotation Yrotation
                  JOINT LeftHandMiddle2
                  {
                    OFFSET 4.0984 0.0113983 -0.0242
                    CHANNELS 3 Zrotation Xrotation Yrotation
                    JOINT LeftHandMiddle3
                    {
                      OFFSET 2.2716 0.00689697 -0.0138001
                      CHANNELS 3 Zrotation Xrotation Yrotation
                      End Site
                      {
                        OFFSET 2.0404 -0.1441 0.0027
                      }
                    }
                  }
                }
                JOINT LeftHandRing1
                {
                  OFFSET 8.5234 0.597198 -2.0164
                  CHANNELS 3 Zrotation Xrotation Yrotation
                  JOINT LeftHandRing2
                  {
                    OFFSET 3.7188 -0.188293 -0.2328
                    CHANNELS 3 Zrotation Xrotation Yrotation
                    JOINT LeftHandRing3
                    {
                      OFFSET 2.1191 -0.106598 -0.1332
                      CHANNELS 3 Zrotation Xrotation Yrotation
                      End Site
                      {
                        OFFSET 1.8737 -0.2304 -0.0886
                      }
                    }
                  }
                }
                JOINT LeftHandPinky1
                {
                  OFFSET 7.9094 -0.601089 -3.4825
                  CHANNELS 3 Zrotation Xrotation Yrotation
                  JOINT LeftHandPinky2
                  {
                    OFFSET 2.2874 -0.477005 -0.6314
                    CHANNELS 3 Zrotation Xrotation Yrotation
                    JOINT LeftHandPinky3
                    {
                      OFFSET 1.6774 -0.349396 -0.4633
                      CHANNELS 3 Zrotation Xrotation Yrotation
                      End Site
                      {
                        OFFSET 1.4888 -0.4091 -0.3416
                      }
                    }
                  }
                }
                JOINT LeftHandThumb1
                {
                  OFFSET 1.833 -1.3875 1.3896
                  CHANNELS 3 Zrotation Xrotation Yrotation
                  JOINT LeftHandThumb2
                  {
                    OFFSET 3.4129 -1.121 2.5732
                    CHANNELS 3 Zrotation Xrotation Yrotation
                    JOINT LeftHandThumb3
                    {
                      OFFSET 2.2474 -0.804199 1.6192
                      CHANNELS 3 Zrotation Xrotation Yrotation
                      End Site
                      {
                        OFFSET 1.6527 -0.5689 1.1317
                      }
                    }
                  }
                }
              }
            }
          }
        }
        JOINT RightShoulder
        {
          OFFSET -2.2086 21.1115 7.2329
          CHANNELS 3 Zrotation Xrotation Yrotation
          JOINT RightArm
          {
            OFFSET -13.1216 3.0287 -4.9007
            CHANNELS 3 Zrotation Xrotation Yrotation
            JOINT RightForeArm
            {
              OFFSET -27.4081 -0.0973053 -0.2375
              CHANNELS 3 Zrotation Xrotation Yrotation
              JOINT RightHand
              {
                OFFSET -22.8641 0.0664063 -0.1369
                CHANNELS 3 Zrotation Xrotation Yrotation
                JOINT RightHandIndex1
                {
                  OFFSET -8.8614 0.774994 2.4612
                  CHANNELS 3 Zrotation Xrotation Yrotation
                  JOINT RightHandIndex2
                  {
                    OFFSET -3.3146 -0.808304 0.5841
                    CHANNELS 3 Zrotation Xrotation Yrotation
                    JOINT RightHandIndex3
                    {
                      OFFSET -2.2628 -0.552002 0.3989
                      CHANNELS 3 Zrotation Xrotation Yrotation
                      End Site
                      {
                        OFFSET -1.6102 -0.4807 0.2612
                      }
                    }
                  }
                }
                JOINT RightHandMiddle1
                {
                  OFFSET -8.9937 0.894989 0.2143
                  CHANNELS 3 Zrotation Xrotation Yrotation
                  JOINT RightHandMiddle2
                  {
                    OFFSET -4.0984 0.0113983 -0.0242
                    CHANNELS 3 Zrotation Xrotation Yrotation
                    JOINT RightHandMiddle3
                    {
                      OFFSET -2.2716 0.00691223 -0.0138001
                      CHANNELS 3 Zrotation Xrotation Yrotation
                      End Site
                      {
                        OFFSET -2.0404 -0.1441 0.0027
                      }
                    }
                  }
                }
                JOINT RightHandRing1
                {
                  OFFSET -8.5234 0.597198 -2.0164
                  CHANNELS 3 Zrotation Xrotation Yrotation
                  JOINT RightHandRing2
                  {
                    OFFSET -3.7188 -0.188309 -0.2328
                    CHANNELS 3 Zrotation Xrotation Yrotation
                    JOINT RightHandRing3
                    {
                      OFFSET -2.1191 -0.106598 -0.1332
                      CHANNELS 3 Zrotation Xrotation Yrotation
                      End Site
                      {
                        OFFSET -1.8737 -0.2304 -0.0886
                      }
                    }
                  }
                }
                JOINT RightHandPinky1
                {
                  OFFSET -7.9094 -0.601105 -3.4825
                  CHANNELS 3 Zrotation Xrotation Yrotation
                  JOINT RightHandPinky2
                  {
                    OFFSET -2.2874 -0.477005 -0.6314
                    CHANNELS 3 Zrotation Xrotation Yrotation
                    JOINT RightHandPinky3
                    {
                      OFFSET -1.6774 -0.349396 -0.4633
                      CHANNELS 3 Zrotation Xrotation Yrotation
                      End Site
                      {
                        OFFSET -1.4888 -0.4091 -0.3416
                      }
                    }
                  }
                }
                JOINT RightHandThumb1
                {
                  OFFSET -1.833 -1.38751 1.3896
                  CHANNELS 3 Zrotation Xrotation Yrotation
                  JOINT RightHandThumb2
                  {
                    OFFSET -3.41299 -1.12099 2.5732
                    CHANNELS 3 Zrotation Xrotation Yrotation
                    JOINT RightHandThumb3
                    {
                      OFFSET -2.24741 -0.804108 1.6192
                      CHANNELS 3 Zrotation Xrotation Yrotation
                      End Site
                      {
                        OFFSET -1.6527 -0.5689 1.1317
                      }
                    }
                  }
                }
              }
            }
          }
        }
      }
    }
  }
  JOINT RightUpLeg
  {
    OFFSET -9.1966 3.8861 -0.7581
    CHANNELS 3 Zrotation Xrotation Yrotation
    JOINT RightLeg
    {
      OFFSET -0.7359 -41.0265 0
      CHANNELS 3 Zrotation Xrotation Yrotation
      JOINT RightFoot
      {
        OFFSET 0 -40.2855 0
        CHANNELS 3 Zrotation Xrotation Yrotation
        JOINT RightToeBase
        {
          OFFSET 0 -5.6122 11.7359
          CHANNELS 3 Zrotation Xrotation Yrotation
          End Site
          {
            OFFSET 0 0 7.8731
          }
        }
      }
    }
  }
  JOINT LeftUpLeg
  {
    OFFSET 9.1965 3.8864 -0.7581
    CHANNELS 3 Zrotation Xrotation Yrotation
    JOINT LeftLeg
    {
      OFFSET 0.7359 -41.0268 0
      CHANNELS 3 Zrotation Xrotation Yrotation
      JOINT LeftFoot
      {
        OFFSET 0 -40.2855 0
        CHANNELS 3 Zrotation Xrotation Yrotation
        JOINT LeftToeBase
        {
          OFFSET 0 -5.6122 11.7359
          CHANNELS 3 Zrotation Xrotation Yrotation
          End Site
          {
            OFFSET 0 0 7.8731
          }
        }
      }
    }
  }
}
MOTION
Frames:	4
Frame Time:	0.0333333
-0.0869185 9.25471 4.97896 178.523 -72.9504 176.605 -0.685786 6.94232 -0.974801 -1.26558 13.895 -1.88616 -1.26558 13.895 -1.88616 -18.6158 12.2536 4.40511 -0.682354 -5.42608 -2.24342 26.2891 3.62068 -21.3866 -30.3794 33.3386 -44.4578 3.53563 -31.6356 -40.4646 -21.5368 -29.0302 -27.0016 -1.16992e-007 -3.88426e-007 1.32716e-007 -1.75488e-007 -5.82639e-007 1.99073e-007 -1.16992e-007 -3.88426e-007 1.32716e-007 -1.16992e-007 -3.88426e-007 1.32716e-007 -0.0146057 -8.93252e-005 1.61228e-006 -1.16991e-007 -3.88443e-007 1.32666e-007 -1.16992e-007 -3.88426e-007 1.32716e-007 -0.0188065 -0.00118024 6.16143e-005 -1.1699e-007 -3.88448e-007 1.32653e-007 -1.16992e-007 -3.88426e-007 1.32716e-007 -0.0122593 -0.00324456 0.00068044 -1.1699e-007 -3.88439e-007 1.32677e-007 -1.16992e-007 -3.88426e-007 1.32716e-007 -1.75488e-007 -5.82639e-007 1.99073e-007 -1.16992e-007 -3.88426e-007 1.32716e-007 -26.3293 3.63803 21.3427 63.1982 36.6998 32.2951 -16.3917 -14.1751 38.4564 62.9752 -49.0176 59.8149 3.39029e-007 -3.44217e-007 6.9598e-007 -1.27222e-014 -9.54166e-015 -3.18055e-015 -9.54166e-015 0 -9.54166e-015 3.39029e-007 -3.44217e-007 6.9598e-007 0.0149829 -9.32842e-005 3.43368e-007 -6.36111e-015 3.18055e-015 -3.18055e-015 3.39029e-007 -3.44217e-007 6.9598e-007 0.0189817 -0.00118937 -5.88601e-005 -3.18055e-015 9.54166e-015 1.27222e-014 3.39029e-007 -3.44217e-007 6.9598e-007 0.0122523 -0.00324352 -0.000671486 2.87453e-007 -1.95207e-007 5.69244e-007 3.39029e-007 -3.44217e-007 6.9598e-007 -1.27222e-014 -9.54166e-015 -3.18055e-015 -9.54166e-015 0 -9.54166e-015 3.90145 -12.952 6.83701 163.732 87.7351 -165.667 0.288695 25.1428 2.68665 4.26406e-007 -1.0437e-008 -1.08464e-008 -3.90689 -13.0599 -6.85787 -164.057 87.6897 165.979 -0.303901 25.2046 -2.6923 2.56916e-009 6.7287e-009 1.06475e-007 
-0.0869185 9.25471 4.97896 178.523 -72.9504 176.605 -0.685786 6.94232 -0.974801 -1.26558 13.895 -1.88616 -1.26558 13.895 -1.88616 -18.7064 12.2762 4.43085 -0.682353 -5.42607 -2.24341 26.2891 3.62068 -21.3866 -30.3626 33.4624 -44.4902 3.68205 -31.7956 -40.4893 -21.6661 -29.151 -27.0887 -6.40016e-007 -2.13726e-006 7.30165e-007 4.02407e-007 4.92314e-007 -3.63977e-006 -4.07283e-007 -1.36008e-006 4.6465e-007 -6.40016e-007 -2.13726e-006 7.30165e-007 -0.0145864 -8.90747e-005 -7.17516e-006 -4.07279e-007 -1.36013e-006 4.64478e-007 -6.40016e-007 -2.13726e-006 7.30165e-007 -0.018738 -0.00117354 5.96263e-005 7.24984e-007 -1.54946e-006 1.07606e-006 -6.40016e-007 -2.13726e-006 7.30165e-007 -0.0122041 -0.00322971 0.000668338 -4.07275e-007 -1.36012e-006 4.64517e-007 -6.40016e-007 -2.13726e-006 7.30165e-007 4.02407e-007 4.92314e-007 -3.63977e-006 -4.07283e-007 -1.36008e-006 4.6465e-007 -26.3293 3.63803 21.3427 63.0762 36.8242 32.3317 -16.4957 -14.411 38.4832 62.9752 -49.0176 59.8148 -1.01433e-006 1.03307e-006 -2.08928e-006 -2.44759e-006 -7.64241e-007 2.04887e-006 -1.01433e-006 1.03307e-006 -2.08928e-006 -1.01433e-006 1.03307e-006 -2.08928e-006 0.0150158 -9.02741e-005 -2.2657e-006 -7.26082e-007 8.44855e-007 -1.51131e-006 -1.01433e-006 1.03307e-006 -2.08928e-006 0.0190152 -0.00119224 -5.43064e-005 -7.25811e-007 8.44723e-007 -1.51134e-006 -1.01433e-006 1.03307e-006 -2.08928e-006 0.0122489 -0.00324382 -0.000671821 -7.26327e-007 8.44662e-007 -1.51132e-006 -1.01433e-006 1.03307e-006 -2.08928e-006 -2.44759e-006 -7.64241e-007 2.04887e-006 -1.01433e-006 1.03307e-006 -2.08928e-006 3.90145 -12.952 6.83701 163.732 87.7351 -165.667 0.288695 25.1428 2.68665 4.26406e-007 -1.0437e-008 -1.08464e-008 -3.90689 -13.0599 -6.85787 -164.057 87.6897 165.979 -0.303902 25.2046 -2.6923 -1.27904e-006 -2.68273e-007 1.01865e-007 
-0.0869185 9.25471 4.97896 178.523 -72.9504 176.605 -0.685786 6.94232 -0.974801 -1.26558 13.895 -1.88616 -1.26558 13.895 -1.88616 -18.797 12.2987 4.45662 -0.68235 -5.42608 -2.24341 26.2891 3.62068 -21.3866 -30.3456 33.5863 -44.5227 3.82874 -31.9558 -40.5136 -21.7958 -29.2717 -27.1763 3.97202e-007 4.92654e-007 -3.64126e-006 -3.34944e-006 -7.19597e-007 -2.84512e-006 3.97202e-007 4.92655e-007 -3.64126e-006 3.97202e-007 4.92654e-007 -3.64126e-006 -0.0146335 -8.9678e-005 -2.02743e-006 3.97076e-007 4.93119e-007 -3.6412e-006 3.97202e-007 4.92654e-007 -3.64126e-006 -0.0188153 -0.00118006 5.4021e-005 -7.32195e-007 6.98608e-007 -4.23413e-006 3.97202e-007 4.92654e-007 -3.64126e-006 -0.0122281 -0.00323397 0.000669636 3.96999e-007 4.93014e-007 -3.64122e-006 3.97202e-007 4.92654e-007 -3.64126e-006 -3.34944e-006 -7.19597e-007 -2.84512e-006 3.97202e-007 4.92655e-007 -3.64126e-006 -26.3293 3.63803 21.3427 62.9537 36.9486 32.3687 -16.5998 -14.6471 38.5096 62.9752 -49.0176 59.8148 -6.74385e-007 6.88995e-007 -1.39374e-006 -1.01158e-006 1.03349e-006 -2.09061e-006 -6.74385e-007 6.88995e-007 -1.39374e-006 -6.74385e-007 6.88995e-007 -1.39374e-006 0.0149983 -9.25782e-005 4.27064e-007 -6.74413e-007 6.88813e-007 -1.39383e-006 -6.74385e-007 6.88995e-007 -1.39374e-006 0.0189962 -0.00119154 -6.33014e-005 -6.74434e-007 6.88766e-007 -1.39385e-006 -6.74385e-007 6.88995e-007 -1.39374e-006 0.0122997 -0.00325472 -0.000680687 -6.74451e-007 6.88847e-007 -1.3938e-006 -6.74385e-007 6.88995e-007 -1.39374e-006 -1.01158e-006 1.03349e-006 -2.09061e-006 -6.74385e-007 6.88995e-007 -1.39374e-006 3.90145 -12.952 6.83701 163.732 87.7351 -165.667 0.288695 25.1428 2.68665 4.26406e-007 -1.0437e-008 -1.08464e-008 -3.90689 -13.0599 -6.85787 -164.057 87.6897 165.979 -0.303902 25.2046 -2.6923 -1.27904e-006 -2.68273e-007 1.01865e-007 
-0.0869185 9.25471 4.97896 178.523 -72.9504 176.605 -0.685786 6.94232 -0.974801 -1.26558 13.895 -1.88616 -1.26558 13.895 -1.88616 -18.8877 12.3212 4.48241 -0.682354 -5.42607 -2.24342 26.2891 3.62068 -21.3866 -30.3286 33.7101 -44.5554 3.97566 -32.1162 -40.5374 -21.9258 -29.3923 -27.2644 5.75566e-008 1.94462e-007 -6.64185e-008 -3.45339e-007 -1.16677e-006 3.98511e-007 -2.87783e-007 -9.72312e-007 3.32092e-007 5.75566e-008 1.94462e-007 -6.64185e-008 -0.0146114 -8.94385e-005 -4.27723e-006 -2.8778e-007 -9.72354e-007 3.31969e-007 5.75566e-008 1.94462e-007 -6.64185e-008 -0.0187593 -0.00117536 6.02029e-005 -2.87776e-007 -9.72366e-007 3.31936e-007 5.75566e-008 1.94462e-007 -6.64185e-008 -0.012283 -0.00325595 0.000674423 -2.87777e-007 -9.72345e-007 3.31996e-007 5.75566e-008 1.94462e-007 -6.64185e-008 -3.45339e-007 -1.16677e-006 3.98511e-007 -2.87783e-007 -9.72312e-007 3.32092e-007 -26.3293 3.63803 21.3427 62.831 37.0729 32.4061 -16.704 -14.8834 38.5356 62.9752 -49.0176 59.8148 -9.54166e-015 6.36111e-015 -6.36111e-015 -1.27222e-014 9.54166e-015 -6.36111e-015 -6.36111e-015 6.36111e-015 -0 -9.54166e-015 6.36111e-015 -6.36111e-015 0.0150236 -8.61855e-005 -1.44673e-006 -1.27222e-014 -6.36111e-015 1.59028e-014 -9.54166e-015 6.36111e-015 -6.36111e-015 0.0189875 -0.00119254 -6.3086e-005 3.18055e-015 3.18055e-015 -6.36111e-015 -9.54166e-015 6.36111e-015 -6.36111e-015 0.0122322 -0.00323885 -0.000676434 -1.27222e-014 -6.36111e-015 3.18055e-015 -9.54166e-015 6.36111e-015 -6.36111e-015 -1.27222e-014 9.54166e-015 -6.36111e-015 -6.36111e-015 6.36111e-015 -0 3.90145 -12.952 6.83701 163.732 87.7351 -165.667 0.288695 25.1428 2.68665 4.26406e-007 -1.0437e-008 -1.08464e-008 -3.90689 -13.0599 -6.85787 -164.057 87.6897 165.979 -0.303902 25.2046 -2.6923 -1.27904e-006 -2.68273e-007 1.01865e-007 
